<svg xml:space="preserve" viewBox="0.17500000000000002 0.325 9.675 9.525" y="0px" x="0px" version="1.1" xmlns:xlink="http://www.w3.org/1999/xlink" xmlns="http://www.w3.org/2000/svg" style="max-height: 500px" width="9.675" height="9.525"><g><circle r="0.514" cy="4.996" cx="4.997"/><path d="M8.499,6.36C8.062,5.923,7.42,5.812,6.877,6.022c0.012,0.013,0.021,0.026,0.034,0.038l0.31,0.31   C7.563,6.304,7.93,6.402,8.193,6.666c0.421,0.421,0.421,1.106,0,1.527s-1.105,0.421-1.527,0C6.402,7.93,6.305,7.563,6.371,7.222   L6.061,6.911C6.049,6.899,6.035,6.89,6.023,6.878C5.811,7.42,5.923,8.062,6.361,8.499c0.589,0.589,1.548,0.589,2.138,0   C9.088,7.909,9.088,6.95,8.499,6.36z"/><path d="M3.128,3.983C3.113,3.966,3.099,3.949,3.082,3.933L2.785,3.636C2.444,3.702,2.077,3.604,1.813,3.34   c-0.42-0.421-0.42-1.106,0.001-1.527c0.421-0.421,1.106-0.421,1.526,0c0.265,0.264,0.362,0.631,0.296,0.972l0.297,0.297   c0.017,0.017,0.034,0.031,0.051,0.046c0.212-0.542,0.1-1.184-0.337-1.621c-0.59-0.59-1.549-0.589-2.139,0s-0.589,1.548,0,2.138   C1.945,4.083,2.586,4.195,3.128,3.983z"/><path d="M6.061,3.082l0.303-0.303C6.297,2.438,6.396,2.07,6.66,1.806c0.42-0.421,1.105-0.421,1.526,0   c0.421,0.421,0.421,1.106,0.001,1.527C7.923,3.597,7.556,3.695,7.215,3.629L6.911,3.933c-0.015,0.014-0.026,0.029-0.04,0.044   c0.543,0.212,1.184,0.1,1.621-0.338c0.589-0.589,0.589-1.548,0-2.138c-0.59-0.589-1.549-0.589-2.139,0   C5.917,1.938,5.805,2.58,6.017,3.122C6.031,3.108,6.046,3.097,6.061,3.082z"/><path d="M6.26,6.712l0.214,0.215l0.949,0.949c0.067,0.066,0.161,0.1,0.259,0.09l0.045-0.004l0.038,0.021   c0.001,0,0.001,0.001,0.003,0.002l0.217-0.219c0,0,0-0.001-0.001-0.002L7.961,7.726l0.005-0.044c0.01-0.098-0.022-0.192-0.09-0.259   L6.928,6.474L6.713,6.259C6.68,6.226,6.648,6.19,6.619,6.155C6.052,5.492,6.049,4.51,6.612,3.845   C6.645,3.807,6.677,3.77,6.713,3.734l0.208-0.208l0.955-0.955c0.067-0.067,0.101-0.162,0.09-0.259L7.962,2.267l0.021-0.039   c0,0,0.001-0.001,0.001-0.002L7.767,2.009c-0.001,0-0.001,0-0.002,0.001L7.727,2.032L7.682,2.027   c-0.098-0.01-0.191,0.023-0.26,0.09L6.467,3.073L6.26,3.281C6.224,3.316,6.186,3.349,6.148,3.381   C5.487,3.94,4.515,3.942,3.852,3.387c-0.04-0.034-0.08-0.069-0.117-0.106L3.533,3.079L2.57,2.118   c-0.067-0.067-0.162-0.1-0.258-0.09L2.268,2.032L2.229,2.009c-0.001,0-0.002,0-0.002,0L2.009,2.227c0,0.001,0,0.001,0.001,0.002   l0.022,0.039L2.027,2.312c-0.01,0.097,0.023,0.191,0.09,0.259l0.962,0.961l0.202,0.202c0.037,0.038,0.072,0.078,0.106,0.118   c0.555,0.663,0.552,1.635-0.007,2.296c-0.031,0.038-0.064,0.075-0.1,0.11L3.073,6.468L2.117,7.423   c-0.066,0.066-0.1,0.161-0.09,0.259l0.004,0.044L2.01,7.765c0,0.001-0.001,0.002-0.001,0.002l0.218,0.219   c0.001-0.001,0.002-0.002,0.002-0.002l0.039-0.021l0.045,0.004c0.097,0.01,0.191-0.023,0.258-0.09l0.956-0.955l0.208-0.209   c0.035-0.035,0.072-0.068,0.11-0.1C4.511,6.05,5.492,6.052,6.155,6.618C6.19,6.649,6.227,6.679,6.26,6.712z M4.997,5.792   c-0.438,0-0.796-0.357-0.796-0.795s0.357-0.795,0.796-0.795s0.796,0.357,0.796,0.795S5.436,5.792,4.997,5.792z"/><path d="M3.933,6.911L3.629,7.214c0.066,0.342-0.031,0.709-0.295,0.973c-0.422,0.421-1.106,0.421-1.527,0s-0.421-1.105,0-1.527   C2.07,6.396,2.438,6.298,2.779,6.364l0.303-0.304c0.014-0.015,0.026-0.029,0.04-0.044c-0.542-0.212-1.184-0.1-1.621,0.338   c-0.59,0.589-0.589,1.548,0,2.137c0.59,0.59,1.548,0.59,2.138,0c0.438-0.437,0.55-1.077,0.338-1.619   C3.963,6.885,3.947,6.897,3.933,6.911z"/><path d="M2.841,1.754C2.756,1.727,2.667,1.713,2.576,1.713c-0.038,0-0.07,0.031-0.07,0.07s0.032,0.07,0.07,0.07   c0.076,0,0.15,0.012,0.222,0.034c0.134,0.043,0.251,0.124,0.34,0.233c0.052,0.063,0.091,0.134,0.119,0.21   C3.27,2.367,3.311,2.386,3.346,2.373c0.011-0.003,0.02-0.009,0.026-0.016c0.019-0.019,0.026-0.047,0.017-0.074   c-0.033-0.091-0.08-0.175-0.143-0.25C3.141,1.901,3,1.805,2.841,1.754z"/><path d="M1.713,2.576c0,0.105,0.02,0.208,0.057,0.306c0.092,0.243,0.295,0.437,0.542,0.517c0.026,0.008,0.054,0,0.071-0.018   C2.391,3.373,2.396,3.364,2.4,3.353c0.012-0.037-0.009-0.076-0.046-0.088C2.147,3.198,1.977,3.036,1.9,2.832   C1.869,2.75,1.854,2.664,1.854,2.576c0-0.039-0.031-0.07-0.07-0.07C1.745,2.506,1.713,2.538,1.713,2.576z"/><path d="M8.027,3.187C8.124,3.089,8.196,2.971,8.238,2.84c0.027-0.085,0.041-0.174,0.041-0.264c0-0.039-0.031-0.07-0.07-0.07   c-0.038,0-0.069,0.032-0.069,0.07c0,0.076-0.012,0.15-0.034,0.222c-0.043,0.133-0.123,0.25-0.233,0.339   C7.81,3.188,7.738,3.229,7.662,3.256C7.626,3.269,7.607,3.31,7.621,3.346C7.634,3.383,7.674,3.401,7.71,3.388   c0.091-0.033,0.176-0.081,0.251-0.142C7.984,3.228,8.006,3.207,8.027,3.187z"/><path d="M7.111,1.769C6.867,1.86,6.675,2.063,6.595,2.312C6.583,2.348,6.604,2.388,6.641,2.4c0.036,0.012,0.076-0.009,0.088-0.045   C6.795,2.147,6.957,1.977,7.16,1.9c0.082-0.031,0.168-0.046,0.256-0.046c0.02,0,0.037-0.008,0.051-0.021   c0.012-0.013,0.02-0.03,0.02-0.05c0-0.039-0.031-0.07-0.069-0.07C7.312,1.713,7.209,1.731,7.111,1.769z"/><path d="M7.195,8.104c-0.133-0.043-0.251-0.123-0.34-0.232C6.805,7.81,6.765,7.738,6.737,7.662C6.724,7.626,6.684,7.606,6.646,7.62   C6.61,7.633,6.592,7.673,6.605,7.71c0.032,0.091,0.08,0.176,0.142,0.25c0.106,0.131,0.246,0.227,0.405,0.278   c0.086,0.027,0.174,0.041,0.265,0.041c0.02,0,0.036-0.008,0.05-0.021c0.013-0.013,0.02-0.03,0.02-0.049   c0-0.039-0.031-0.07-0.069-0.07C7.341,8.14,7.267,8.128,7.195,8.104z"/><path d="M8.093,7.161C8.124,7.242,8.14,7.328,8.14,7.416c0,0.039,0.031,0.07,0.07,0.07c0.02,0,0.036-0.008,0.05-0.021   c0.012-0.013,0.021-0.03,0.021-0.05c0-0.104-0.019-0.208-0.056-0.306C8.132,6.867,7.93,6.674,7.682,6.595   C7.645,6.583,7.605,6.603,7.594,6.64s0.008,0.076,0.045,0.088C7.846,6.795,8.016,6.956,8.093,7.161z"/><path d="M1.754,7.151C1.728,7.237,1.713,7.326,1.713,7.417c0,0.038,0.032,0.07,0.07,0.07c0.02,0,0.037-0.009,0.05-0.021   s0.021-0.03,0.021-0.049c0-0.076,0.012-0.15,0.035-0.223c0.043-0.133,0.123-0.25,0.232-0.339c0.063-0.052,0.134-0.091,0.21-0.119   c0.036-0.013,0.056-0.054,0.042-0.09s-0.054-0.056-0.09-0.042c-0.092,0.033-0.176,0.08-0.251,0.142   C1.902,6.853,1.807,6.993,1.754,7.151z"/><path d="M2.882,8.224c0.115-0.043,0.219-0.111,0.305-0.197c0.096-0.096,0.17-0.215,0.212-0.346C3.411,7.645,3.39,7.604,3.354,7.593   C3.316,7.581,3.277,7.601,3.265,7.638C3.198,7.846,3.037,8.016,2.832,8.093C2.751,8.124,2.665,8.14,2.576,8.14   c-0.038,0-0.07,0.031-0.07,0.07c0,0.038,0.032,0.07,0.07,0.07C2.682,8.28,2.785,8.261,2.882,8.224z"/></g><text font-family="'Helvetica Neue', Helvetica, Arial-Unicode, Arial, Sans-serif" font-weight="bold" font-size="5px" fill="#000000" y="25" x="0">Created by verry poernomo</text><text font-family="'Helvetica Neue', Helvetica, Arial-Unicode, Arial, Sans-serif" font-weight="bold" font-size="5px" fill="#000000" y="30" x="0">from the Noun Project</text></svg>